<svg width="25" height="25" viewBox="0 0 25 25" fill="none" xmlns="http://www.w3.org/2000/svg">
<rect width="25" height="25" rx="6" fill="#F4F4F4"/>
<path d="M18.2426 8.48324C18.82 9.06065 18.8295 9.99385 18.2639 10.5828L13.7052 15.3303C13.4299 15.617 13.052 15.7827 12.6547 15.791L10.7413 15.8312L10.7818 13.9026C10.7899 13.5143 10.9484 13.1442 11.2239 12.8704L15.8825 8.23834C16.4688 7.65542 17.4162 7.65678 18.0008 8.24138L18.2426 8.48324Z" fill="#B5B5C3"/>
<path opacity="0.3" d="M13.5263 7.16675C13.8485 7.16675 14.1096 7.42792 14.1096 7.75008C14.1096 8.07225 13.8485 8.33341 13.5263 8.33341H9.5013C8.85697 8.33341 8.33464 8.85575 8.33464 9.50008V16.5001C8.33464 17.1444 8.85697 17.6667 9.5013 17.6667H16.5013C17.1456 17.6667 17.668 17.1444 17.668 16.5001V13.5834C17.668 13.2612 17.9291 13.0001 18.2513 13.0001C18.5735 13.0001 18.8346 13.2612 18.8346 13.5834V16.5001C18.8346 17.7887 17.79 18.8334 16.5013 18.8334H9.5013C8.21264 18.8334 7.16797 17.7887 7.16797 16.5001V9.50008C7.16797 8.21142 8.21264 7.16675 9.5013 7.16675H13.5263Z" fill="#B5B5C3"/>
</svg>
