<svg width="41" height="40" viewBox="0 0 41 40" fill="none" xmlns="http://www.w3.org/2000/svg">
<rect x="0.963867" width="40" height="40" rx="4" fill="#47BE7D"/>
<path d="M20.8491 26.119C20.0671 26.119 19.3644 25.983 18.7411 25.711C18.1291 25.4277 17.6474 25.0423 17.2961 24.555C16.9447 24.0563 16.7634 23.484 16.7521 22.838H18.4011C18.4577 23.3933 18.6844 23.8637 19.0811 24.249C19.4891 24.623 20.0784 24.81 20.8491 24.81C21.5857 24.81 22.1637 24.6287 22.5831 24.266C23.0137 23.892 23.2291 23.416 23.2291 22.838C23.2291 22.3847 23.1044 22.0163 22.8551 21.733C22.6057 21.4497 22.2941 21.2343 21.9201 21.087C21.5461 20.9397 21.0417 20.781 20.4071 20.611C19.6251 20.407 18.9961 20.203 18.5201 19.999C18.0554 19.795 17.6531 19.4777 17.3131 19.047C16.9844 18.605 16.8201 18.0157 16.8201 17.279C16.8201 16.633 16.9844 16.0607 17.3131 15.562C17.6417 15.0633 18.1007 14.678 18.6901 14.406C19.2907 14.134 19.9764 13.998 20.7471 13.998C21.8577 13.998 22.7644 14.2757 23.4671 14.831C24.1811 15.3863 24.5834 16.123 24.6741 17.041H22.9741C22.9174 16.5877 22.6794 16.191 22.2601 15.851C21.8407 15.4997 21.2854 15.324 20.5941 15.324C19.9481 15.324 19.4211 15.494 19.0131 15.834C18.6051 16.1627 18.4011 16.6273 18.4011 17.228C18.4011 17.6587 18.5201 18.01 18.7581 18.282C19.0074 18.554 19.3077 18.7637 19.6591 18.911C20.0217 19.047 20.5261 19.2057 21.1721 19.387C21.9541 19.6023 22.5831 19.8177 23.0591 20.033C23.5351 20.237 23.9431 20.56 24.2831 21.002C24.6231 21.4327 24.7931 22.022 24.7931 22.77C24.7931 23.348 24.6401 23.892 24.3341 24.402C24.0281 24.912 23.5747 25.3257 22.9741 25.643C22.3734 25.9603 21.6651 26.119 20.8491 26.119Z" fill="white"/>
</svg>
